<?xml version="1.0" standalone="no"?><svg xmlns="http://www.w3.org/2000/svg" viewBox="0 0 1440 320"><path fill="#ffa500" fill-opacity="1" d="M0,160L26.7,160C53.3,160,107,160,160,154.7C213.3,149,267,139,320,138.7C373.3,139,427,149,480,176C533.3,203,587,245,640,224C693.3,203,747,117,800,74.7C853.3,32,907,32,960,53.3C1013.3,75,1067,117,1120,122.7C1173.3,128,1227,96,1280,122.7C1333.3,149,1387,235,1413,277.3L1440,320L1440,320L1413.3,320C1386.7,320,1333,320,1280,320C1226.7,320,1173,320,1120,320C1066.7,320,1013,320,960,320C906.7,320,853,320,800,320C746.7,320,693,320,640,320C586.7,320,533,320,480,320C426.7,320,373,320,320,320C266.7,320,213,320,160,320C106.7,320,53,320,27,320L0,320Z"></path></svg>